<svg width="146" height="145" viewBox="0 0 146 145" fill="none" xmlns="http://www.w3.org/2000/svg">
<mask id="mask0" mask-type="alpha" maskUnits="userSpaceOnUse" x="0" y="0" width="146" height="145">
<rect width="146" height="145" fill="#C4C4C4"/>
</mask>
<g mask="url(#mask0)">
<g style="mix-blend-mode:multiply">
<path d="M1.54936 82.4364C-5.36217 52.0782 13.8158 21.9113 44.238 15.2873L75.9614 8.37985C109.532 1.07026 141.708 25.4352 143.774 59.7301L145.312 85.2626C147.293 118.132 120.623 145.606 87.7096 144.604L58.4857 143.715C32.9951 142.939 11.2483 125.038 5.58711 100.172L1.54936 82.4364Z" fill="#E7EDF3"/>
</g>
<mask id="mask1" mask-type="alpha" maskUnits="userSpaceOnUse" x="0" y="-24" width="179" height="169">
<g style="mix-blend-mode:multiply">
<path d="M1.40985 82.4364C-5.50169 52.0782 13.6762 21.9113 44.0984 15.2872L75.8219 8.37982C109.392 1.07023 141.569 25.4352 143.635 59.7301L145.173 85.2626C147.153 118.132 120.484 145.606 87.5701 144.604L58.3462 143.715C32.8556 142.939 11.1088 125.038 5.4476 100.172L1.40985 82.4364Z" fill="#EEEFF4"/>
<path d="M49.5044 48.3081C42.5456 17.9086 61.7609 -12.3188 92.2402 -18.9192L109.759 -22.7129C143.305 -29.9775 175.433 -5.62883 177.509 28.6324L178.152 39.2539C180.143 72.1259 153.477 99.611 120.56 98.6142L103.845 98.1081C78.3751 97.3368 56.6374 79.4683 50.9515 54.6296L49.5044 48.3081Z" fill="#EEEFF4"/>
</g>
</mask>
<g mask="url(#mask1)">
<path d="M101.04 34.5254C102.804 36.741 102.145 40.3016 99.5952 42.4712C90.2202 50.328 80.8451 58.1849 71.5075 66.0634C68.9362 68.2704 65.0216 67.7064 62.7729 64.8617C60.5242 62.0169 60.858 58.0691 63.5731 56.0449C73.3798 48.7366 83.149 41.4066 92.9557 34.0982C95.6276 32.1489 99.2761 32.3098 101.04 34.5254Z" fill="#E40711"/>
<path d="M104.619 46.8179C106.292 48.9313 105.66 52.358 103.25 54.4585C95.155 61.3083 87.0008 68.1739 78.9055 75.0237C76.4365 77.1401 72.6931 76.6251 70.5351 73.8826C68.3771 71.1401 68.6992 67.3851 71.3121 65.4515C79.8232 59.0913 88.3342 52.731 96.861 46.4297C99.4523 44.5336 102.908 44.6829 104.619 46.8179Z" fill="#E40711"/>
<path d="M103.694 61.8983C105.261 63.8505 104.684 67.0095 102.419 68.9446C96.6851 73.8651 90.9509 78.7856 85.2167 83.706C82.9895 85.6627 79.5138 85.2025 77.5155 82.7018C75.5171 80.2012 75.8435 76.6981 78.252 74.9458C84.3272 70.4716 90.4023 65.9974 96.4991 61.4858C98.9234 59.7926 102.127 59.9462 103.694 61.8983Z" fill="#E40711"/>
<path d="M50.034 59.1033C52.4108 62.0719 56.5182 62.6474 59.2291 60.3714C69.0563 52.0771 78.8618 43.8203 88.6889 35.526C91.3998 33.25 92.0919 29.4592 90.2374 27.1413C88.3829 24.8235 84.5631 24.6136 81.6868 26.7442C71.4122 34.431 61.1377 42.1177 50.8415 49.8419C48.0242 51.9567 47.6199 56.1132 50.034 59.1033Z" fill="#F9B79D"/>
<path d="M38.3323 59.9301C39.5157 58.9172 43.6719 55.7795 46.3238 53.5192C50.3203 50.1396 53.7725 47.4436 53.7725 47.4436C53.7725 47.4436 66.4664 53.625 74.6573 62.5943C82.8482 71.5636 85.2162 83.706 85.2162 83.706L63.3166 105.134C52.3824 114.136 42.5419 114.591 36.5429 115.218C30.5654 115.807 20.0181 125.781 20.0181 125.781L-8.64118 109.235C-8.64118 109.235 6.95756 96.0414 10.6173 92.4674C12.2644 90.8243 14.1074 88.4962 14.5213 85.7919C16.0575 75.3548 24.0308 71.8268 38.3323 59.9301Z" fill="#F9B79D"/>
<path d="M31.3557 121.352L7.16954 91.8733L-12.0454 107.269L18.6162 134.104L31.3557 121.352Z" fill="#9FACBB"/>
<path d="M130.992 28.9237C132.438 26.4179 131.565 23.157 129.059 21.7103L93.1627 0.985758C90.6569 -0.460981 87.396 0.412766 85.9493 2.91859L38.9122 84.3893C37.4654 86.8951 38.3392 90.156 40.845 91.6027L76.7097 112.309C79.2155 113.756 82.4763 112.882 83.9231 110.376L130.96 28.9057L130.992 28.9237Z" fill="#9FACBB"/>
<path d="M127.754 22.6691L119.203 17.7321C114.535 15.0375 106.36 10.3175 101.818 7.6953L92.9227 2.55937C90.8554 1.36581 88.2911 1.97349 87.188 3.88418L40.3859 84.9477C39.337 86.7644 40.0665 89.1902 42.0398 90.3295L77.2153 110.638C79.1887 111.777 81.6361 111.228 82.7031 109.379L129.523 28.2847C130.595 26.3559 129.821 23.8626 127.754 22.6691Z" fill="white"/>
<path d="M127.754 22.6691L92.9227 2.55937C90.8554 1.36581 88.2911 1.97349 87.188 3.88418L40.404 84.9163C39.3551 86.7331 40.0846 89.1588 42.0579 90.2982L77.2334 110.607C79.2068 111.746 81.6542 111.196 82.7212 109.348L129.505 28.316C130.577 26.3872 129.821 23.8626 127.754 22.6691Z" fill="white"/>
<path fill-rule="evenodd" clip-rule="evenodd" d="M67.1515 53.8555C67.4277 53.3772 68.0392 53.2133 68.5175 53.4895L96.7218 69.7732C97.2001 70.0493 97.3639 70.6609 97.0878 71.1392C96.8116 71.6175 96.2001 71.7814 95.7218 71.5053L67.5175 55.2215C67.0392 54.9454 66.8754 54.3338 67.1515 53.8555ZM61.7504 63.2106C62.0265 62.7323 62.6381 62.5684 63.1164 62.8446L91.3206 79.1283C91.7989 79.4044 91.9628 80.016 91.6866 80.4943C91.4105 80.9726 90.7989 81.1365 90.3206 80.8603L62.1164 64.5766C61.6381 64.3005 61.4742 63.6889 61.7504 63.2106Z" fill="#9FACBB"/>
<path d="M113.253 31.7145C113.83 33.8685 113.975 36.1166 113.67 38.3109C113.369 40.4389 112.673 42.4766 111.602 44.3317C110.516 46.2127 109.114 47.808 107.422 49.1327C105.674 50.494 103.68 51.5074 101.5 52.0697C99.3464 52.6468 97.0983 52.7918 94.9039 52.4868C92.7759 52.1858 90.7383 51.4903 88.8831 50.4193C87.028 49.3482 85.4068 47.9313 84.0822 46.2389C82.7208 44.491 81.7075 42.4974 81.1452 40.3176L81.0145 39.8299L86.7857 38.2835L86.9164 38.7712C87.6569 41.5349 89.3997 43.8122 91.8732 45.2403C94.3468 46.6684 97.1904 47.039 99.954 46.2985C102.718 45.558 104.995 43.8152 106.423 41.3417C107.836 38.8939 108.222 36.0245 107.481 33.2608L107.351 32.7731L113.122 31.2268L113.253 31.7145Z" fill="#E40711"/>
<path d="M89.1103 49.9664C87.3067 48.925 85.7222 47.5636 84.4491 45.901C83.1244 44.2086 82.1477 42.2705 81.6072 40.172L86.4436 38.8761C87.2168 41.7617 89.0587 44.1649 91.6353 45.6525C94.2119 47.1401 97.2141 47.5336 100.1 46.7604C102.985 45.9872 105.388 44.1454 106.876 41.5688C108.364 38.9922 108.757 35.99 107.984 33.1044L112.82 31.8085C113.387 33.9219 113.525 36.0629 113.224 38.1909C112.927 40.2524 112.261 42.2386 111.22 44.0422C110.178 45.8458 108.817 47.4303 107.154 48.7034C105.462 50.0281 103.524 51.0048 101.425 51.5453C99.3119 52.1116 97.1709 52.2497 95.0429 51.9487C92.8852 51.6992 90.9397 51.0226 89.1103 49.9664ZM88.6194 50.8166C90.5519 51.9323 92.6411 52.6576 94.8355 52.9626C97.0963 53.2716 99.4107 53.1306 101.631 52.5574C103.866 51.9584 105.901 50.9342 107.719 49.5104C109.467 48.1491 110.914 46.4764 112.029 44.544C113.145 42.6115 113.87 40.5223 114.175 38.3279C114.484 36.0672 114.343 33.7527 113.77 31.5322L113.509 30.5568L112.533 30.8182L107.697 32.1141L106.721 32.3755L106.983 33.3509C107.68 35.952 107.328 38.7034 105.974 41.0481C104.621 43.3928 102.439 45.088 99.8125 45.7701C97.2114 46.4671 94.46 46.1153 92.1153 44.7616C89.7706 43.4079 88.0754 41.2267 87.3933 38.5999L87.1319 37.6245L86.1674 37.9265L81.331 39.2224L80.3556 39.4837L80.6169 40.4591C81.2159 42.6945 82.2401 44.7287 83.6639 46.547C85.0401 48.2691 86.7127 49.7158 88.6194 50.8166Z" fill="white"/>
<path d="M94.932 25.603L94.4443 25.7337C91.6806 26.4742 89.4033 28.217 87.9752 30.6906C86.562 33.1383 86.1765 36.0077 86.917 38.7714L87.0477 39.2591L81.2765 40.8054L81.1458 40.3177C80.5687 38.1637 80.4237 35.9156 80.7287 33.7213C81.0297 31.5933 81.7252 29.5556 82.7962 27.7005C83.8822 25.8195 85.2842 24.2242 86.9766 22.8995C88.7245 21.5382 90.7181 20.5248 92.8979 19.9625L93.3856 19.8319L94.932 25.603Z" fill="#E7EDF3"/>
<path d="M81.6074 40.1721C81.0411 38.0587 80.903 35.9177 81.2041 33.7897C81.5011 31.7282 82.1668 29.742 83.2081 27.9384C84.2495 26.1348 85.6109 24.5503 87.2735 23.2772C88.9659 21.9525 90.9039 20.9758 93.0025 20.4353L94.2984 25.2717C91.4128 26.0449 89.0096 27.8867 87.522 30.4634C86.0343 33.04 85.6409 36.0421 86.4141 38.9277L81.6074 40.1721ZM80.8934 41.4089L81.8688 41.1475L86.7052 39.8516L87.6806 39.5903L87.4192 38.6148C86.7223 36.0137 87.074 33.2623 88.4278 30.9176C89.7815 28.5729 91.9626 26.8777 94.5895 26.1956L95.5649 25.9342L95.3035 24.9588L94.0076 20.1224L93.7463 19.147L92.7709 19.4083C90.5355 20.0073 88.5013 21.0315 86.683 22.4553C84.9351 23.8166 83.4884 25.4893 82.3727 27.4217C81.257 29.3542 80.5318 31.4434 80.2268 33.6378C79.9178 35.8986 80.0588 38.213 80.632 40.4335L80.8934 41.4089Z" fill="white"/>
<path d="M105.488 21.5978C107.369 22.6837 108.965 24.0858 110.289 25.7782C111.651 27.5261 112.664 29.5197 113.226 31.6995L113.357 32.1872L107.586 33.7335L107.455 33.2458C106.715 30.4822 104.972 28.2049 102.498 26.7768C100.025 25.3487 97.1812 24.978 94.4175 25.7186L93.9298 25.8492L92.3834 20.0781L92.8711 19.9474C95.0252 19.3702 97.2732 19.2252 99.4676 19.5302C101.596 19.8312 103.633 20.5267 105.488 21.5978Z" fill="#9FACBB"/>
<path d="M94.3129 25.2459L93.017 20.4095C95.1304 19.8432 97.2714 19.7052 99.3994 20.0062C101.461 20.3032 103.447 20.9689 105.251 22.0102C107.054 23.0516 108.639 24.413 109.912 26.0756C111.237 27.768 112.213 29.7061 112.754 31.8046L107.917 33.1005C107.144 30.2149 105.302 27.8117 102.726 26.3241C100.16 24.8771 97.1728 24.4579 94.3129 25.2459ZM93.5989 26.4827L94.5743 26.2213C97.1754 25.5244 99.9268 25.8761 102.272 27.2299C104.616 28.5836 106.311 30.7647 106.994 33.3916L107.255 34.367L108.23 34.1057L113.067 32.8097L114.042 32.5484L113.781 31.573C113.182 29.3377 112.158 27.3034 110.734 25.4851C109.373 23.7372 107.7 22.2905 105.767 21.1748C103.835 20.0591 101.746 19.3339 99.5514 19.0289C97.2906 18.7199 94.9761 18.8609 92.7557 19.4341L91.7803 19.6955L92.0416 20.6709L93.3375 25.5073L93.5989 26.4827Z" fill="white"/>
<circle cx="76.5462" cy="59.1872" r="3.82093" transform="rotate(30 76.5462 59.1872)" fill="#E40711" stroke="white"/>
<circle cx="81.4358" cy="74.4834" r="3.82093" transform="rotate(30 81.4358 74.4834)" fill="#E40711" stroke="white"/>
<path d="M14.6819 84.7371C16.9 106.471 36.3382 95.0952 42.2137 84.9186C48.0892 74.7419 42.7815 64.494 42.5991 63.3411C42.4541 62.2098 43.4192 59.6741 49.4998 56.4003C55.5803 53.1265 59.0183 50.023 61.1047 47.1869C63.2285 44.3724 65.8466 35.2583 62.4315 34.4339C56.233 32.9006 57.3568 42.878 47.7088 44.6409C44.3997 45.2745 37.8062 45.8078 35.4467 47.3888C24.9666 54.3084 14.2415 80.1428 14.6819 84.7371Z" fill="#F9B79D"/>
<path d="M59.1955 36.7559C59.6773 38.0816 58.9671 39.9165 58.2011 41.0705C56.8849 43.0045 54.9328 44.5712 52.8233 42.9543" stroke="white" stroke-miterlimit="10" stroke-linecap="round" stroke-linejoin="round"/>
<path d="M36.627 91.5705C38.9348 89.5606 40.9332 87.2224 42.2509 84.9401C48.1048 74.8009 42.8188 64.5156 42.6364 63.3627C42.4913 62.2314 43.4565 59.6957 49.537 56.4218C55.6175 53.148 59.0555 50.0446 61.1419 47.2085" stroke="white" stroke-miterlimit="10" stroke-linecap="round" stroke-linejoin="round"/>
<path d="M55.5993 146.324L64.9017 145.159C66.7324 140.779 68.8605 138.216 67.4014 132.535C66.4426 128.839 57.53 121.897 55.9531 124.628C54.9811 126.312 54.1618 127.385 53.0478 127.241C51.8965 127.075 49.7496 125.437 48.3168 118.673C46.884 111.909 44.8286 107.779 42.7138 104.962C40.599 102.145 32.5997 97.0774 30.8284 100.145C27.6314 105.683 37.5374 107.361 36.5455 117.115C36.2091 120.462 35.2427 126.888 35.793 129.651C36.2844 132.429 40.1162 141.604 40.1162 141.604L55.6209 146.286L55.5993 146.324Z" fill="#F9B79D"/>
<path d="M31.5 102.179C32.899 102.089 34.4746 103.248 35.3378 104.345C36.8355 106.158 37.8006 108.461 35.6555 110.016" stroke="white" stroke-miterlimit="10" stroke-linecap="round" stroke-linejoin="round"/>
<path d="M55.6162 124.104C54.6442 125.787 54.1618 127.385 53.0478 127.241C51.8965 127.075 49.7496 125.437 48.3168 118.673C46.884 111.909 44.8286 107.779 42.7138 104.962C40.599 102.145 32.5997 97.0774 30.8284 100.145C27.6314 105.683 37.1081 106.85 36.1162 116.604" stroke="white" stroke-miterlimit="10" stroke-linecap="round" stroke-linejoin="round"/>
<path d="M82.789 95.7736C86.0761 96.4742 88.2052 99.6988 87.5046 102.986L82.2058 128.062C81.5053 131.349 78.2806 133.478 74.9936 132.778C71.7065 132.077 69.5774 128.853 70.278 125.565L75.5768 100.489C76.2183 97.218 79.4803 95.1105 82.789 95.7736Z" fill="#F9B79D"/>
<path d="M99.2623 106.382L94.1826 130.387C93.5094 133.541 90.387 135.579 87.2338 134.906C84.0805 134.233 82.0421 131.11 82.7152 127.957L87.7575 103.93C88.4306 100.777 91.2005 98.485 94.2084 99.3236C97.2104 100.259 99.898 103.207 99.2623 106.382Z" fill="#F9B79D"/>
<path d="M108.939 110.273C108.982 112.443 107.601 129.006 106.238 133.008C104.897 136.973 101.624 137.976 98.6794 137.374C95.7564 136.734 93.8934 133.912 94.496 130.968L99.1764 108.777C99.7948 105.891 101.63 104.008 104.484 104.508C107.36 104.971 108.895 108.102 108.939 110.273Z" fill="#F9B79D"/>
<path d="M65.7218 113.756C69.1802 114.506 72.625 112.254 73.3156 108.812L81.248 71.1386C81.7942 68.8101 82.7023 64.6451 78.4224 63.072C74.1425 61.499 71.2426 65.3121 69.3099 73.3254C67.3773 81.3386 60.857 105.161 59.0755 112.912C57.7366 118.774 62.2045 113.023 65.7218 113.756Z" fill="#F9B79D"/>
<path d="M91.1396 162.702C95.4185 158.488 102.816 151.984 105.739 138.107C105.739 138.107 108.285 119.872 108.541 116.578C108.797 113.284 105.485 109.775 105.485 109.775L74.2462 102.016C74.2462 102.016 61.7759 103.397 59.6909 110.723C58.374 115.251 58.0113 119.681 56.1316 124.232C54.2519 128.784 55.729 136.422 55.2034 146.145L89.1755 165.759C89.6739 164.55 90.3377 163.487 91.1396 162.702Z" fill="#F9B79D"/>
<path d="M75.0703 63.7805C73.7214 64.6479 73.3807 67.7437 73.3807 67.7437C72.9093 70.1154 73.7316 73.1842 77.2521 73.2213C77.2521 73.2213 78.5963 73.3988 80.0806 72.2104" stroke="white" stroke-miterlimit="10" stroke-linecap="round" stroke-linejoin="round"/>
<path d="M86.1597 113.783C86.2412 111.136 87.6162 103.604 87.6162 103.604" stroke="white" stroke-miterlimit="10" stroke-linecap="round" stroke-linejoin="round"/>
<path d="M73.8198 112.345C73.8198 108.104 77.1162 92.6038 77.1162 92.6038" stroke="white" stroke-miterlimit="10" stroke-linecap="round" stroke-linejoin="round"/>
<path d="M98.1279 115.604C98.2668 113.29 99.5002 107.5 99.5002 107.5" stroke="white" stroke-miterlimit="10" stroke-linecap="round" stroke-linejoin="round"/>
</g>
</g>
</svg>
